<svg width="25" height="25" viewBox="0 0 25 25" fill="none" xmlns="http://www.w3.org/2000/svg">
<path d="M21.9374 16.75C21.9374 17.13 21.7274 17.46 21.4074 17.63L13.5074 22.07C13.3474 22.19 13.1474 22.25 12.9374 22.25C12.7274 22.25 12.5274 22.19 12.3674 22.07L4.46738 17.63C4.30706 17.5458 4.17289 17.4192 4.07945 17.264C3.98602 17.1089 3.93688 16.9311 3.93738 16.75V7.75C3.93738 7.37 4.14738 7.04 4.46738 6.87L12.3674 2.43C12.5274 2.31 12.7274 2.25 12.9374 2.25C13.1474 2.25 13.3474 2.31 13.5074 2.43L21.4074 6.87C21.7274 7.04 21.9374 7.37 21.9374 7.75V16.75ZM12.9374 4.4L11.0474 5.47L16.9374 8.86L18.8974 7.75L12.9374 4.4ZM6.97738 7.75L12.9374 11.1L14.8974 10L9.01738 6.6L6.97738 7.75ZM5.93738 16.16L11.9374 19.54V12.83L5.93738 9.46V16.16ZM19.9374 16.16V9.46L13.9374 12.83V19.54L19.9374 16.16Z" fill="black"/>
</svg>
