<svg width="25" height="25" viewBox="0 0 25 25" fill="none" xmlns="http://www.w3.org/2000/svg">
<path d="M7.93738 21.4932C7.38738 21.4932 6.91671 21.2975 6.52538 20.9062C6.13404 20.5148 5.93804 20.0438 5.93738 19.4932V6.49316C5.65404 6.49316 5.41671 6.39716 5.22538 6.20516C5.03404 6.01316 4.93804 5.77583 4.93738 5.49316C4.93738 5.20983 5.03338 4.9725 5.22538 4.78116C5.41738 4.58983 5.65471 4.49383 5.93738 4.49316H9.93738C9.93738 4.20983 10.0334 3.9725 10.2254 3.78116C10.4174 3.58983 10.6547 3.49383 10.9374 3.49316H14.9374C15.2207 3.49316 15.4584 3.58916 15.6504 3.78116C15.8424 3.97316 15.938 4.2105 15.9374 4.49316H19.9374C20.2207 4.49316 20.4584 4.58916 20.6504 4.78116C20.8424 4.97316 20.938 5.2105 20.9374 5.49316C20.9374 5.7765 20.8414 6.01416 20.6494 6.20616C20.4574 6.39816 20.22 6.49383 19.9374 6.49316V19.4932C19.9374 20.0432 19.7417 20.5142 19.3504 20.9062C18.959 21.2982 18.488 21.4938 17.9374 21.4932H7.93738ZM17.9374 6.49316H7.93738V19.4932H17.9374V6.49316ZM10.9374 17.4932C11.2207 17.4932 11.4584 17.3972 11.6504 17.2052C11.8424 17.0132 11.938 16.7758 11.9374 16.4932V9.49316C11.9374 9.20983 11.8414 8.9725 11.6494 8.78116C11.4574 8.58983 11.22 8.49383 10.9374 8.49316C10.654 8.49316 10.4167 8.58916 10.2254 8.78116C10.034 8.97316 9.93804 9.2105 9.93738 9.49316V16.4932C9.93738 16.7765 10.0334 17.0142 10.2254 17.2062C10.4174 17.3982 10.6547 17.4938 10.9374 17.4932ZM14.9374 17.4932C15.2207 17.4932 15.4584 17.3972 15.6504 17.2052C15.8424 17.0132 15.938 16.7758 15.9374 16.4932V9.49316C15.9374 9.20983 15.8414 8.9725 15.6494 8.78116C15.4574 8.58983 15.22 8.49383 14.9374 8.49316C14.654 8.49316 14.4167 8.58916 14.2254 8.78116C14.034 8.97316 13.938 9.2105 13.9374 9.49316V16.4932C13.9374 16.7765 14.0334 17.0142 14.2254 17.2062C14.4174 17.3982 14.6547 17.4938 14.9374 17.4932Z" fill="black"/>
</svg>
