<svg width="50" height="49" viewBox="0 0 50 49" fill="none" xmlns="http://www.w3.org/2000/svg">
<path d="M25 24.0293C26.1458 24.0293 27.1271 23.638 27.9438 22.8553C28.7604 22.0726 29.1681 21.1306 29.1667 20.0293C29.1667 18.9293 28.759 17.988 27.9438 17.2053C27.1285 16.4226 26.1472 16.0306 25 16.0293C23.8542 16.0293 22.8736 16.4213 22.0583 17.2053C21.2431 17.9893 20.8347 18.9306 20.8333 20.0293C20.8333 21.1293 21.2417 22.0713 22.0583 22.8553C22.875 23.6393 23.8556 24.0306 25 24.0293ZM25 38.7293C29.2361 34.996 32.3785 31.6046 34.4271 28.5553C36.4757 25.506 37.5 22.7973 37.5 20.4293C37.5 16.796 36.2938 13.8213 33.8813 11.5053C31.4688 9.1893 28.5083 8.03063 25 8.0293C21.4931 8.0293 18.5333 9.18796 16.1208 11.5053C13.7083 13.8226 12.5014 16.7973 12.5 20.4293C12.5 22.796 13.5243 25.5046 15.5729 28.5553C17.6215 31.606 20.7639 34.9973 25 38.7293ZM25 44.0293C19.4097 39.4626 15.2347 35.2213 12.475 31.3053C9.71529 27.3893 8.33473 23.764 8.33334 20.4293C8.33334 15.4293 10.009 11.446 13.3604 8.4793C16.7118 5.51263 20.5917 4.0293 25 4.0293C29.4097 4.0293 33.2903 5.51263 36.6417 8.4793C39.9931 11.446 41.6681 15.4293 41.6667 20.4293C41.6667 23.7626 40.2868 27.388 37.5271 31.3053C34.7674 35.2226 30.5917 39.464 25 44.0293Z" fill="#201F22"/>
</svg>