<svg width="50" height="48" viewBox="0 0 50 48" fill="none" xmlns="http://www.w3.org/2000/svg">
<path d="M41.5625 42H43.75V30.25L33.3333 28.2L27.2917 34C25.9028 33.2333 24.609 32.4087 23.4104 31.526C22.2118 30.6433 21.1097 29.718 20.1042 28.75C19.0278 27.75 18.0208 26.6667 17.0833 25.5C16.1458 24.3333 15.2951 23.1 14.5313 21.8L20.4688 16.05L18.5417 6H6.25V8.1C6.25 12.3 7.1875 16.4333 9.0625 20.5C10.9375 24.5667 13.6111 28.2667 17.0833 31.6C20.5556 34.9333 24.4181 37.5 28.6708 39.3C32.9236 41.1 37.2208 42 41.5625 42ZM12.5521 18C12.0312 16.8 11.5972 15.5413 11.25 14.224C10.9028 12.9067 10.6424 11.4987 10.4688 10H15.1042L15.9896 14.7L12.5521 18ZM31.1979 35.9L34.6875 32.55L39.5833 33.5V37.9C38.1944 37.8 36.7965 37.5833 35.3896 37.25C33.9826 36.9167 32.5854 36.4667 31.1979 35.9Z" fill="#201F22"/>
</svg>