<svg width="25" height="24" viewBox="0 0 25 24" fill="none" xmlns="http://www.w3.org/2000/svg">
<g clip-path="url(#clip0_115_1507)">
<path d="M3.5 13.5L2.75 12H8L7.4 10.5H2.5L1.75 9H9.55L8.95 7.5H1.61L0.75 6H4.5C4.5 5.46957 4.71071 4.96086 5.08579 4.58579C5.46086 4.21071 5.96957 4 6.5 4H18.5V8H21.5L24.5 12V17H22.5C22.5 17.7956 22.1839 18.5587 21.6213 19.1213C21.0587 19.6839 20.2956 20 19.5 20C18.7044 20 17.9413 19.6839 17.3787 19.1213C16.8161 18.5587 16.5 17.7956 16.5 17H12.5C12.5 17.7956 12.1839 18.5587 11.6213 19.1213C11.0587 19.6839 10.2956 20 9.5 20C8.70435 20 7.94129 19.6839 7.37868 19.1213C6.81607 18.5587 6.5 17.7956 6.5 17H4.5V13.5H3.5ZM19.5 18.5C19.8978 18.5 20.2794 18.342 20.5607 18.0607C20.842 17.7794 21 17.3978 21 17C21 16.6022 20.842 16.2206 20.5607 15.9393C20.2794 15.658 19.8978 15.5 19.5 15.5C19.1022 15.5 18.7206 15.658 18.4393 15.9393C18.158 16.2206 18 16.6022 18 17C18 17.3978 18.158 17.7794 18.4393 18.0607C18.7206 18.342 19.1022 18.5 19.5 18.5ZM21 9.5H18.5V12H22.96L21 9.5ZM9.5 18.5C9.89782 18.5 10.2794 18.342 10.5607 18.0607C10.842 17.7794 11 17.3978 11 17C11 16.6022 10.842 16.2206 10.5607 15.9393C10.2794 15.658 9.89782 15.5 9.5 15.5C9.10218 15.5 8.72064 15.658 8.43934 15.9393C8.15804 16.2206 8 16.6022 8 17C8 17.3978 8.15804 17.7794 8.43934 18.0607C8.72064 18.342 9.10218 18.5 9.5 18.5Z" fill="black"/>
</g>
<defs>
<clipPath id="clip0_115_1507">
<rect width="24" height="24" fill="white" transform="translate(0.5)"/>
</clipPath>
</defs>
</svg>
