<svg width="40" height="41" viewBox="0 0 40 41" fill="none" xmlns="http://www.w3.org/2000/svg">
    <path d="M20.3536 22.4032L20.0001 22.0496L19.6465 22.4032L11.4799 30.5699C11.2772 30.7725 11.0199 30.8818 10.6667 30.8818C10.3136 30.8818 10.0563 30.7725 9.85363 30.5699C9.65101 30.3672 9.54175 30.1099 9.54175 29.7568C9.54175 29.4036 9.65101 29.1463 9.85363 28.9436L18.0203 20.777L18.3739 20.4234L18.0203 20.0699L9.85363 11.9032C9.65101 11.7006 9.54175 11.4432 9.54175 11.0901C9.54175 10.7369 9.65101 10.4796 9.85363 10.277C10.0563 10.0743 10.3136 9.96509 10.6667 9.96509C11.0199 9.96509 11.2772 10.0743 11.4799 10.277L19.6465 18.4436L20.0001 18.7972L20.3536 18.4436L28.5203 10.277C28.7229 10.0743 28.9803 9.96509 29.3334 9.96509C29.6866 9.96509 29.9439 10.0743 30.1465 10.277C30.3492 10.4796 30.4584 10.7369 30.4584 11.0901C30.4584 11.4432 30.3492 11.7006 30.1465 11.9032L21.9799 20.0699L21.6263 20.4234L21.9799 20.777L30.1465 28.9436C30.3492 29.1463 30.4584 29.4036 30.4584 29.7568C30.4584 30.1099 30.3492 30.3672 30.1465 30.5699C29.9439 30.7725 29.6866 30.8818 29.3334 30.8818C28.9803 30.8818 28.7229 30.7725 28.5203 30.5699L20.3536 22.4032Z" fill="white" stroke="white"/>
</svg>
