<svg width="14" height="13" viewBox="0 0 14 13" fill="none" xmlns="http://www.w3.org/2000/svg">
<path d="M4.08338 3.26683L5.95005 0.850163C6.08338 0.672385 6.24183 0.541941 6.42538 0.458829C6.60894 0.375718 6.80049 0.333941 7.00005 0.333496C7.20005 0.333496 7.39183 0.375274 7.57538 0.458829C7.75894 0.542385 7.91716 0.67283 8.05005 0.850163L9.91672 3.26683L12.75 4.21683C13.0389 4.30572 13.2667 4.46972 13.4334 4.70883C13.6 4.94794 13.6834 5.21172 13.6834 5.50016C13.6834 5.6335 13.6638 5.76683 13.6247 5.90016C13.5856 6.0335 13.5218 6.16127 13.4334 6.2835L11.6 8.8835L11.6667 11.6168C11.6778 12.0057 11.55 12.3335 11.2834 12.6002C11.0167 12.8668 10.7056 13.0002 10.35 13.0002C10.3278 13.0002 10.2056 12.9835 9.98338 12.9502L7.00005 12.1168L4.01672 12.9502C3.96116 12.9724 3.90005 12.9864 3.83338 12.9922C3.76672 12.9979 3.7056 13.0006 3.65005 13.0002C3.29449 13.0002 2.98338 12.8668 2.71671 12.6002C2.45005 12.3335 2.32227 12.0057 2.33338 11.6168L2.40005 8.86683L0.583382 6.2835C0.494493 6.16127 0.430493 6.0335 0.391381 5.90016C0.35227 5.76683 0.332937 5.6335 0.333382 5.50016C0.333382 5.22238 0.414048 4.96416 0.575381 4.7255C0.736715 4.48683 0.961604 4.31727 1.25005 4.21683L4.08338 3.26683ZM4.90005 4.41683L1.66671 5.4835L3.73338 8.46683L3.66672 11.6502L7.00005 10.7335L10.3334 11.6668L10.2667 8.46683L12.3334 5.51683L9.10005 4.41683L7.00005 1.66683L4.90005 4.41683Z" fill="#0E0ADB"/>
</svg>
