<svg width="14" height="13" viewBox="0 0 14 13" fill="none" xmlns="http://www.w3.org/2000/svg">
<path d="M4.08338 3.26659L5.95005 0.849919C6.08338 0.672141 6.24183 0.541696 6.42538 0.458585C6.60894 0.375474 6.80049 0.333696 7.00005 0.333252C7.20005 0.333252 7.39183 0.37503 7.57538 0.458585C7.75894 0.542141 7.91716 0.672585 8.05005 0.849919L9.91672 3.26659L12.75 4.21659C13.0389 4.30547 13.2667 4.46947 13.4334 4.70859C13.6 4.9477 13.6834 5.21147 13.6834 5.49992C13.6834 5.63325 13.6638 5.76659 13.6247 5.89992C13.5856 6.03325 13.5218 6.16103 13.4334 6.28325L11.6 8.88325L11.6667 11.6166C11.6778 12.0055 11.55 12.3333 11.2834 12.5999C11.0167 12.8666 10.7056 12.9999 10.35 12.9999C10.3278 12.9999 10.2056 12.9833 9.98338 12.9499L7.00005 12.1166L4.01672 12.9499C3.96116 12.9721 3.90005 12.9861 3.83338 12.9919C3.76672 12.9977 3.7056 13.0004 3.65005 12.9999C3.29449 12.9999 2.98338 12.8666 2.71671 12.5999C2.45005 12.3333 2.32227 12.0055 2.33338 11.6166L2.40005 8.86659L0.583382 6.28325C0.494493 6.16103 0.430493 6.03325 0.391381 5.89992C0.35227 5.76659 0.332937 5.63325 0.333382 5.49992C0.333382 5.22214 0.414048 4.96392 0.575381 4.72525C0.736715 4.48659 0.961604 4.31703 1.25005 4.21659L4.08338 3.26659Z" fill="#0E0ADB"/>
</svg>
